# xmcd
#
# Track frame offsets: 
#        150
#        13816
#        26939
#        39204
#        52281
#        63274
#        75129
#        88937
#        101399
#        113156
#        125850
#        140339
#        149366
#        159823
#        172684
#        181752
#        194931
#        207719
#        219773
#        233730
#        245177
#        258395
#        267989
#        279964
#        290850
#        304335
#        317477
#        330489
#        343817
#
# Disc length: 4788 seconds
#
# Revision: 1
# Processed by: cddbd v1.5.2PL0 Copyright (c) Steve Scherf et al.
# Submitted via: ExactAudioCopy v1.3
#
DISCID=b312b21d
DTITLE=Little Walter - Akella Presents - Greatest Bluesmen - vol. 15  
DTITLE=CD2
DYEAR=2017
DGENRE=Blues
TTITLE0=Teenage Beat
TTITLE1=It Ain't Right
TTITLE2=It's Too Late Brother
TTITLE3=Just A Feeling
TTITLE4=I've Had My Fun
TTITLE5=Toddle - Little Walter
TTITLE6=Confessin' The Blues
TTITLE7=Key To The Highway
TTITLE8=Walkin' On
TTITLE9=You Gonna Be Sorry
TTITLE10=One Of These Mornings
TTITLE11=Baby
TTITLE12=I Don't Play
TTITLE13=My Baby Is Sweeter
TTITLE14=Crazy Mixed Up World
TTITLE15=Blue And Lonesome
TTITLE16=Everything's Gonna Be Alright
TTITLE17=Worried Life
TTITLE18=Mean Old Frisco
TTITLE19=Me And Piney Brown
TTITLE20=Going Down Slow
TTITLE21=Up The Line
TTITLE22=As Long As I Have
TTITLE23=You Don't Know
TTITLE24=You're Sweet
TTITLE25=I'm A Business Man
TTITLE26=Dead Presidents
TTITLE27=Feel So Bad
TTITLE28=Make It Alright
EXTD=
EXTT0=
EXTT1=
EXTT2=
EXTT3=
EXTT4=
EXTT5=
EXTT6=
EXTT7=
EXTT8=
EXTT9=
EXTT10=
EXTT11=
EXTT12=
EXTT13=
EXTT14=
EXTT15=
EXTT16=
EXTT17=
EXTT18=
EXTT19=
EXTT20=
EXTT21=
EXTT22=
EXTT23=
EXTT24=
EXTT25=
EXTT26=
EXTT27=
EXTT28=
PLAYORDER=
